<?xml version="1.0" standalone="no"?>
<!DOCTYPE svg PUBLIC "-//W3C//DTD SVG 20010904//EN"
 "http://www.w3.org/TR/2001/REC-SVG-20010904/DTD/svg10.dtd">
<svg version="1.0" xmlns="http://www.w3.org/2000/svg"
 width="500.000000pt" height="500.000000pt" viewBox="0 0 500.000000 500.000000"
 preserveAspectRatio="xMidYMid meet">

<g transform="translate(0.000000,500.000000) scale(0.100000,-0.100000)"
fill="#000000" stroke="none">
<path d="M2755 3543 c11 -39 -5 -48 -31 -17 l-24 29 10 -28 c8 -23 6 -33 -13
-58 -20 -29 -22 -44 -27 -222 -7 -260 10 -232 -261 -445 -69 -55 -139 -117
-155 -138 -27 -35 -29 -45 -36 -163 -3 -69 -9 -142 -13 -161 -4 -24 -2 -41 9
-55 l16 -20 16 20 c11 14 13 30 9 55 -4 19 -9 76 -11 125 l-4 90 20 -50 c18
-46 20 -74 20 -322 0 -265 1 -273 23 -307 18 -28 28 -35 55 -36 40 0 40 8 2
45 l-30 29 0 177 c0 167 2 182 26 248 15 39 30 71 35 71 5 0 9 -116 9 -260 0
-286 4 -310 52 -310 33 0 35 10 8 35 -19 17 -20 31 -20 248 0 225 1 231 25
283 19 41 35 59 65 74 21 11 42 20 45 20 3 0 5 -135 5 -301 0 -266 2 -304 17
-330 14 -23 25 -29 50 -29 40 0 42 12 8 39 l-26 20 3 263 c3 253 4 265 25 298
l23 35 0 -294 c0 -345 3 -361 64 -361 l40 0 -27 28 -27 28 0 260 0 259 28 50
27 50 5 408 5 409 28 24 c25 21 35 23 80 18 45 -5 54 -3 64 14 11 18 4 24 -88
71 -54 29 -99 56 -99 60 0 4 -7 16 -16 27 -15 18 -15 18 -9 -3z"/>
<path d="M2480 3219 c0 -45 4 -55 34 -85 19 -19 39 -34 45 -34 21 0 12 29 -33
105 -12 19 0 11 33 -24 53 -57 64 -53 37 14 -15 35 -67 75 -98 75 -15 0 -18
-9 -18 -51z"/>
<path d="M2338 3104 c-29 -9 -48 -20 -48 -30 0 -24 79 -102 116 -114 35 -12
110 -5 119 10 8 13 -41 42 -114 67 -66 22 -66 22 -25 23 37 0 97 -14 148 -36
18 -7 18 -5 -3 24 -42 60 -115 81 -193 56z"/>
<path d="M2879 2926 c-23 -13 -59 -56 -59 -71 0 -13 51 -3 95 20 27 13 50 23
52 21 5 -5 -61 -54 -91 -67 -41 -19 -31 -32 20 -26 31 3 54 13 74 32 30 29 57
82 46 92 -14 14 -112 13 -137 -1z"/>
<path d="M2840 2762 c0 -5 21 -21 48 -35 51 -29 43 -36 -15 -12 -46 19 -52 13
-20 -19 26 -26 59 -32 104 -20 21 6 22 8 8 34 -8 16 -25 36 -37 44 -23 17 -88
22 -88 8z"/>
<path d="M2168 2143 c-16 -4 -16 -7 -3 -32 15 -30 33 -41 68 -41 19 0 17 3
-10 20 -43 26 -42 33 3 14 47 -20 57 -9 21 22 -27 23 -43 27 -79 17z"/>
<path d="M2200 2030 c-12 -12 -18 -25 -15 -30 10 -15 51 -12 66 6 11 13 9 15
-17 9 -24 -4 -25 -4 -8 4 31 14 39 31 15 31 -12 0 -30 -9 -41 -20z"/>
<path d="M2783 2040 c-29 -12 -50 -50 -28 -50 9 0 29 7 45 15 42 22 37 11 -7
-20 -35 -23 -36 -25 -13 -25 48 0 108 62 79 81 -17 11 -47 10 -76 -1z"/>
<path d="M2760 1932 c0 -5 10 -14 23 -21 21 -11 20 -11 -7 -6 -26 6 -28 4 -17
-9 14 -16 81 -23 81 -8 0 16 -41 52 -60 52 -11 0 -20 -4 -20 -8z"/>
<path d="M1460 1745 c0 -3 12 -51 27 -106 25 -94 28 -99 53 -99 25 0 28 5 40
60 7 33 16 60 19 60 4 0 13 -27 19 -60 12 -56 15 -60 40 -60 26 0 29 5 55 99
32 115 31 111 13 111 -10 0 -20 -25 -32 -75 -10 -41 -20 -72 -23 -69 -3 3 -13
36 -21 72 -14 61 -18 67 -40 67 -23 0 -26 -6 -41 -75 l-16 -75 -11 40 c-6 22
-15 56 -19 75 -7 28 -15 36 -36 38 -15 2 -27 0 -27 -3z"/>
<path d="M1780 1645 l0 -105 25 0 25 0 0 105 0 105 -25 0 -25 0 0 -105z"/>
<path d="M1887 1743 c-4 -3 -7 -51 -7 -105 l0 -98 75 0 c43 0 75 4 75 10 0 6
-20 10 -45 10 l-45 0 0 95 c0 93 -1 95 -23 95 -13 0 -27 -3 -30 -7z"/>
<path d="M2082 1734 c-15 -10 -22 -25 -22 -49 0 -38 13 -48 84 -69 49 -14 59
-40 21 -58 -22 -10 -30 -8 -56 11 -24 18 -34 20 -42 11 -27 -26 68 -60 120
-43 15 5 34 21 42 35 22 38 -5 74 -64 89 -54 14 -73 32 -55 54 18 21 50 19 76
-6 21 -20 44 -19 44 1 0 16 -57 40 -92 40 -19 0 -44 -7 -56 -16z"/>
<path d="M2313 1730 c-57 -34 -63 -138 -10 -175 52 -36 143 -26 173 20 18 28
21 94 5 123 -27 50 -112 67 -168 32z m93 -8 c40 -27 46 -111 9 -147 -30 -31
-40 -31 -72 1 -22 22 -25 32 -21 76 7 65 45 97 84 70z"/>
<path d="M2540 1645 c0 -118 17 -145 22 -35 l3 71 60 -71 c42 -49 66 -70 83
-70 22 0 23 1 20 103 -3 116 -20 135 -28 30 l-5 -67 -64 72 c-35 40 -70 72
-77 72 -11 0 -14 -23 -14 -105z"/>
<path d="M2857 1743 c-16 -16 -4 -22 48 -25 l55 -3 -55 -79 c-30 -44 -55 -83
-55 -88 0 -4 41 -8 90 -8 98 0 125 17 35 22 l-55 3 55 79 c30 44 55 86 55 93
0 10 -21 13 -83 13 -46 0 -87 -3 -90 -7z"/>
<path d="M3115 1741 c-40 -17 -60 -51 -60 -101 0 -56 20 -83 72 -101 101 -33
185 59 141 156 -21 46 -96 69 -153 46z m88 -28 c28 -32 26 -114 -3 -143 -43
-43 -90 -8 -90 68 0 27 7 57 16 70 18 26 55 29 77 5z"/>
<path d="M3345 1717 c-28 -28 -35 -43 -35 -75 0 -76 77 -128 153 -103 48 16
68 42 74 94 5 38 1 48 -24 77 -24 27 -38 33 -81 38 -49 4 -54 2 -87 -31z m117
-4 c26 -24 25 -116 -2 -143 -44 -44 -90 -8 -90 72 0 78 45 113 92 71z"/>
<path d="M1960 1440 c0 -7 187 -10 540 -10 353 0 540 3 540 10 0 7 -187 10
-540 10 -353 0 -540 -3 -540 -10z"/>
</g>
</svg>
