<svg id="svg" version="1.1" xmlns="http://www.w3.org/2000/svg" xmlns:xlink="http://www.w3.org/1999/xlink" width="400" height="326.4076130055511" viewBox="0, 0, 400,326.4076130055511"><g id="svgg"><path id="path0" d="M130.262 41.044 C 122.424 43.889,117.917 50.110,117.157 59.136 L 116.941 61.697 116.221 60.060 C 114.702 56.607,114.249 52.868,114.945 49.545 L 115.364 47.543 113.637 49.227 C 104.789 57.856,102.048 70.343,107.374 77.756 L 108.545 79.387 107.973 81.327 C 106.530 86.221,107.611 93.692,110.697 100.153 L 112.297 103.503 111.004 105.179 C 104.693 113.359,100.609 116.672,90.179 122.070 C 83.457 125.549,79.940 127.858,75.337 131.818 C 65.694 140.114,53.235 145.048,46.618 143.191 C 34.254 139.722,36.833 119.623,50.568 112.403 C 55.168 109.985,56.504 109.794,69.944 109.632 C 87.180 109.424,94.225 105.179,94.775 94.673 C 95.375 83.196,89.441 76.834,74.068 72.475 C 59.110 68.233,53.541 63.717,52.388 54.893 L 52.158 53.132 51.583 54.718 C 49.751 59.775,50.865 66.459,54.299 71.008 C 55.455 72.539,55.508 72.684,54.833 72.481 C 53.484 72.078,50.218 70.137,48.412 68.665 L 46.641 67.223 47.282 68.718 C 50.965 77.311,55.602 79.830,68.517 80.254 C 78.292 80.575,80.907 81.211,84.140 84.057 C 89.831 89.067,87.884 98.998,80.508 102.578 C 76.619 104.465,74.269 104.679,60.745 104.378 C 51.238 104.166,46.066 105.862,39.682 111.285 C 24.319 124.336,28.357 149.707,46.291 152.804 C 54.085 154.150,68.109 148.900,78.430 140.772 C 79.084 140.257,79.619 139.904,79.619 139.987 C 79.619 156.677,82.293 167.806,91.399 189.030 C 93.933 194.934,94.050 195.492,93.963 201.242 C 93.877 207.012,94.374 209.727,96.724 216.310 C 97.435 218.302,97.982 219.963,97.938 220.001 C 97.894 220.039,96.431 220.784,94.687 221.656 C 88.007 224.995,73.298 233.224,69.465 235.766 L 68.668 236.295 66.781 233.742 C 58.661 222.751,46.586 217.881,32.256 219.817 C 28.160 220.371,28.237 220.194,30.587 223.646 C 38.217 234.853,46.394 239.302,61.027 240.209 L 62.261 240.285 59.917 241.767 C 56.050 244.211,46.804 250.751,41.396 254.867 L 36.320 258.730 32.879 257.072 C 23.821 252.708,14.095 253.136,5.081 258.294 C 2.084 260.009,2.084 259.980,4.994 261.916 C 13.730 267.728,23.006 269.260,31.442 266.283 C 33.264 265.640,33.257 265.741,31.285 268.363 C 21.660 281.157,20.162 297.595,27.206 313.121 L 28.126 315.147 30.125 313.085 C 42.960 299.850,46.659 284.672,41.204 267.630 C 40.657 265.921,40.262 264.478,40.327 264.424 C 44.707 260.741,65.717 248.487,79.302 241.690 C 142.310 210.171,205.902 200.165,261.351 213.048 C 277.260 216.744,298.148 224.432,309.900 230.916 L 312.266 232.221 322.840 221.648 L 333.413 211.074 326.500 207.964 C 322.698 206.254,319.490 204.762,319.371 204.648 C 319.252 204.534,319.572 202.688,320.082 200.545 C 323.685 185.413,323.769 184.246,321.412 182.080 C 317.446 178.438,316.928 177.852,316.000 175.955 C 314.422 172.731,313.438 167.536,313.410 162.279 C 313.398 159.884,313.666 160.685,314.046 164.174 C 314.685 170.041,316.855 176.791,318.557 178.206 C 319.235 178.770,318.682 167.707,317.839 163.838 C 314.316 147.670,300.814 134.842,275.573 123.682 C 257.915 115.875,252.323 111.237,245.584 98.810 C 242.380 92.903,242.098 92.141,240.772 85.805 C 238.312 74.048,237.281 73.350,235.050 81.931 C 233.932 86.231,233.220 87.029,228.049 89.770 C 225.135 91.315,223.526 92.575,221.489 94.908 C 220.848 95.642,218.413 96.431,216.791 96.431 C 215.561 96.431,210.289 97.300,210.045 97.542 C 209.987 97.600,210.237 97.945,210.600 98.308 C 211.438 99.146,211.438 99.617,210.601 99.835 C 210.144 99.955,209.989 100.191,210.096 100.603 C 210.194 100.977,210.027 101.318,209.646 101.522 C 208.115 102.341,209.499 103.756,212.624 104.567 L 214.889 105.154 213.018 105.388 C 210.252 105.734,206.820 110.173,206.820 113.405 C 206.820 115.947,210.529 114.146,212.410 110.690 C 213.483 108.719,214.127 108.307,217.343 107.539 C 220.096 106.882,221.013 106.885,218.974 107.545 C 216.096 108.478,212.983 110.635,213.615 111.260 C 214.201 111.840,219.045 111.423,221.536 110.578 L 224.039 109.728 224.810 110.452 C 226.706 112.234,228.059 115.950,228.366 120.222 C 228.522 122.403,228.867 124.758,229.132 125.456 L 229.614 126.725 229.662 125.456 C 229.709 124.220,229.729 124.245,230.417 126.408 C 230.806 127.629,231.544 129.342,232.057 130.214 C 232.869 131.595,233.013 132.214,233.171 134.994 C 233.358 138.308,234.305 141.088,235.908 143.035 L 236.540 143.803 236.421 141.925 L 236.303 140.048 237.215 142.427 C 237.717 143.735,238.734 145.734,239.475 146.868 L 240.824 148.929 240.668 153.846 C 240.465 160.251,238.387 171.362,236.665 175.258 C 235.354 178.222,233.072 179.831,229.841 180.070 C 226.831 180.293,226.632 180.378,226.076 181.674 C 225.609 182.762,224.907 185.116,224.903 185.609 C 224.902 185.719,225.579 185.999,226.408 186.231 C 227.828 186.629,227.531 186.666,221.253 186.865 C 215.097 187.061,202.384 187.954,201.538 188.250 C 201.336 188.321,200.493 188.174,199.663 187.924 C 197.643 187.316,195.446 187.368,192.387 188.095 C 190.991 188.427,189.755 188.601,189.639 188.481 C 188.420 187.221,184.293 170.669,179.203 146.630 C 178.640 143.969,178.093 141.796,177.987 141.800 C 177.882 141.804,176.769 143.339,175.515 145.210 C 174.261 147.081,171.691 150.909,169.805 153.717 C 167.919 156.525,166.020 159.491,165.585 160.308 L 164.794 161.794 166.157 164.243 C 172.330 175.332,177.311 187.541,177.315 191.594 C 177.315 191.951,176.105 192.330,172.480 193.111 C 165.616 194.589,166.321 194.811,163.909 190.404 C 157.791 179.227,157.840 179.355,157.213 172.847 C 156.935 169.950,156.502 166.524,156.252 165.234 C 156.002 163.943,155.720 162.325,155.625 161.638 L 155.453 160.389 157.312 162.229 C 158.334 163.241,159.579 164.620,160.077 165.294 C 161.246 166.874,161.236 166.878,161.926 164.575 C 162.249 163.497,163.244 161.178,164.137 159.420 C 165.780 156.187,166.531 155.015,174.835 142.715 C 184.086 129.014,187.018 120.973,186.970 109.437 C 186.925 98.690,184.183 86.866,179.105 75.523 C 176.897 70.592,176.826 70.526,176.560 73.178 C 175.949 79.259,173.514 86.056,167.524 98.397 C 165.940 101.658,164.465 104.906,164.244 105.613 C 163.609 107.646,163.362 107.139,163.364 103.807 C 163.365 100.166,163.818 97.185,165.722 88.269 C 169.471 70.708,168.821 62.136,163.078 53.419 C 157.249 44.570,139.248 37.782,130.262 41.044 M152.245 47.729 C 157.785 51.497,160.001 55.922,161.291 65.790 C 161.895 70.412,161.838 70.503,160.523 67.009 C 158.079 60.517,153.104 51.586,149.859 47.869 C 147.514 45.182,147.579 45.310,148.787 45.731 C 149.375 45.936,150.931 46.835,152.245 47.729 M148.090 52.492 C 148.006 52.575,146.917 53.065,145.669 53.579 C 141.843 55.157,136.150 59.317,135.080 61.317 C 134.768 61.900,134.875 61.880,136.183 61.114 C 139.188 59.352,145.193 56.501,146.993 55.980 C 152.225 54.467,155.627 57.665,152.743 61.386 C 152.284 61.978,152.275 61.963,152.575 61.121 C 153.474 58.605,152.523 57.925,149.343 58.809 C 146.131 59.702,142.304 61.966,143.306 62.381 C 148.242 64.423,153.025 70.897,153.934 76.764 L 154.351 79.461 154.774 77.294 C 155.308 74.554,155.085 71.321,154.229 69.384 C 152.100 64.572,159.567 71.673,162.156 76.923 C 164.122 80.911,165.094 86.766,163.276 83.674 C 162.337 82.078,159.043 78.351,158.570 78.351 C 158.414 78.351,158.287 78.896,158.287 79.562 C 158.287 81.253,157.459 83.878,156.217 86.122 C 153.091 91.773,149.888 101.579,149.432 106.899 L 149.200 109.596 148.507 108.117 C 148.126 107.303,147.576 105.591,147.286 104.310 L 146.757 101.983 146.186 103.285 C 144.608 106.882,144.333 109.641,145.257 112.607 C 146.092 115.292,145.143 114.494,143.466 111.102 C 141.739 107.607,141.659 104.054,143.201 99.445 C 143.318 99.096,142.982 99.596,142.454 100.555 C 139.095 106.663,139.049 112.040,142.295 118.923 C 144.026 122.595,144.026 122.595,141.082 120.084 C 132.363 112.644,131.188 106.395,136.699 96.762 C 137.352 95.621,138.906 92.915,140.153 90.750 C 142.331 86.967,144.013 83.161,144.482 80.954 L 144.704 79.909 143.876 80.736 C 141.913 82.700,138.783 83.413,135.455 82.656 C 132.651 82.018,131.056 82.287,133.250 83.028 C 135.931 83.933,136.176 84.374,134.012 84.400 C 130.805 84.438,130.539 84.904,133.631 85.068 C 137.282 85.262,137.844 85.803,134.401 85.810 C 132.905 85.813,131.261 86.014,130.531 86.284 L 129.262 86.752 131.959 86.941 C 136.502 87.261,137.321 87.970,133.386 88.176 C 129.312 88.390,127.763 89.112,131.347 89.126 C 133.858 89.136,136.396 89.795,137.075 90.612 C 137.419 91.026,137.326 91.068,136.381 90.921 C 133.361 90.453,131.248 90.402,129.985 90.768 L 128.628 91.161 131.553 91.421 C 137.107 91.916,137.249 92.402,132.276 93.900 C 127.201 95.429,125.056 95.232,123.036 93.050 C 121.049 90.902,120.704 88.706,122.252 88.059 C 123.844 87.394,126.087 85.208,126.855 83.573 C 127.787 81.590,127.681 81.244,126.487 82.374 C 125.178 83.613,124.301 84.060,123.177 84.061 C 122.686 84.062,121.817 84.348,121.245 84.696 C 120.493 85.154,119.647 85.329,118.178 85.329 C 114.455 85.329,114.387 85.050,117.206 81.355 C 119.747 78.026,120.824 75.944,121.020 73.987 L 121.170 72.482 120.620 73.651 C 120.200 74.544,119.829 74.864,119.045 75.011 C 117.461 75.309,115.806 76.801,116.696 77.130 C 117.549 77.446,117.557 78.397,116.713 79.161 C 115.946 79.856,115.609 79.533,115.271 77.776 C 114.495 73.746,119.136 63.152,123.390 59.244 C 125.368 57.427,129.423 54.782,128.592 55.850 C 126.309 58.787,124.663 61.361,124.663 61.995 C 124.663 62.086,125.806 61.237,127.203 60.109 C 131.444 56.685,137.620 54.065,144.336 52.841 C 146.864 52.380,148.339 52.243,148.090 52.492 M58.526 69.747 C 61.418 72.279,66.792 74.830,69.310 74.867 C 71.059 74.892,69.332 75.517,66.964 75.716 C 61.148 76.204,55.775 71.948,54.672 65.979 C 54.472 64.897,54.503 64.917,55.884 66.772 C 56.664 67.819,57.852 69.158,58.526 69.747 M134.496 70.579 C 132.071 72.206,131.721 72.276,131.450 71.194 C 131.262 70.444,131.114 70.586,129.549 73.018 C 127.529 76.156,127.453 76.481,129.025 75.258 C 130.889 73.808,131.110 73.720,130.852 74.532 C 130.653 75.159,130.698 75.196,131.273 74.888 C 131.627 74.699,132.849 74.544,133.988 74.544 C 135.328 74.544,136.700 74.304,137.875 73.864 L 139.692 73.185 138.831 72.498 C 137.917 71.769,137.995 71.372,139.054 71.372 C 140.490 71.372,138.921 70.644,137.416 70.612 C 135.878 70.579,135.865 70.570,136.325 69.865 C 136.921 68.950,136.931 68.946,134.496 70.579 M231.732 77.459 C 231.307 78.893,231.082 80.435,230.481 86.043 C 230.324 87.511,230.612 87.530,232.115 86.153 C 234.693 83.790,235.486 76.852,233.275 76.003 C 232.374 75.658,232.226 75.798,231.732 77.459 M118.879 89.905 C 120.759 91.250,121.174 91.848,121.174 93.213 C 121.174 94.837,120.899 95.163,119.529 95.163 C 117.250 95.163,115.464 92.255,115.464 88.543 L 115.464 87.114 116.336 87.911 C 116.816 88.350,117.960 89.247,118.879 89.905 M178.911 103.251 C 177.866 113.636,175.560 120.131,167.932 134.179 C 162.547 144.097,160.969 148.026,159.674 154.741 C 159.475 155.774,159.549 155.828,153.504 150.198 C 141.246 138.780,131.247 126.918,128.657 120.719 L 128.168 119.548 129.508 120.701 C 137.013 127.155,139.683 128.866,152.076 135.165 L 156.492 137.410 155.090 135.771 C 154.318 134.871,153.299 133.666,152.824 133.095 L 151.959 132.056 153.934 130.446 C 158.697 126.562,164.875 119.682,168.292 114.454 C 170.679 110.804,170.628 110.652,169.194 117.180 C 168.252 121.468,168.289 121.500,170.432 118.259 C 174.393 112.267,177.243 104.408,178.270 96.641 C 179.005 91.087,179.060 91.015,179.163 95.480 C 179.218 97.835,179.104 101.332,178.911 103.251 M224.172 95.046 C 224.062 95.156,224.114 95.513,224.289 95.839 C 224.568 96.360,224.484 96.431,223.588 96.431 L 222.570 96.431 223.315 95.638 C 223.725 95.202,224.130 94.845,224.216 94.845 C 224.302 94.845,224.282 94.936,224.172 95.046 M123.553 95.797 C 124.924 96.496,127.580 96.642,129.404 96.119 C 131.608 95.487,133.436 98.651,131.968 100.555 C 131.362 101.340,131.351 101.341,130.874 100.714 C 130.405 100.095,130.393 100.101,130.383 100.918 C 130.377 101.380,130.076 102.717,129.714 103.891 C 129.351 105.065,129.140 106.364,129.244 106.779 C 129.472 107.689,129.399 107.698,127.902 106.932 C 126.413 106.170,124.061 103.809,123.815 102.828 C 123.470 101.454,123.149 102.768,123.318 104.867 C 123.428 106.239,123.352 107.044,123.081 107.370 C 122.481 108.093,122.128 107.952,122.101 106.979 C 122.087 106.499,121.813 105.393,121.491 104.520 L 120.906 102.934 120.881 104.124 C 120.816 107.266,117.680 102.102,117.689 98.869 C 117.696 96.743,117.887 96.497,119.505 96.542 C 120.506 96.570,121.031 96.398,121.558 95.871 C 121.948 95.481,122.276 95.163,122.287 95.163 C 122.299 95.163,122.868 95.448,123.553 95.797 M126.739 122.794 C 132.392 136.862,141.838 149.415,150.874 154.870 L 152.502 155.853 152.706 159.687 C 152.818 161.796,152.998 164.798,153.106 166.359 L 153.303 169.196 151.792 167.495 C 149.942 165.412,148.388 163.015,146.969 160.054 C 146.211 158.473,145.953 158.125,146.096 158.875 C 146.393 160.440,147.308 162.365,149.749 166.558 C 150.948 168.618,152.493 171.489,153.183 172.939 C 155.689 178.205,159.512 186.443,161.104 190.008 C 163.662 195.736,163.569 195.627,166.117 195.862 C 169.485 196.172,170.109 196.309,171.216 196.985 C 172.498 197.767,173.679 199.569,173.109 199.874 C 172.776 200.051,158.775 203.965,158.473 203.965 C 157.383 203.965,153.112 191.814,151.914 185.303 C 151.048 180.595,149.877 176.425,149.522 176.780 C 149.445 176.857,149.660 178.473,149.999 180.371 C 150.338 182.269,150.705 184.822,150.813 186.043 L 151.011 188.263 150.015 186.360 C 146.483 179.606,143.462 174.137,140.204 168.596 C 135.283 160.227,133.412 156.685,131.761 152.617 C 131.009 150.763,130.389 149.355,130.383 149.487 C 130.352 150.194,132.059 156.669,133.033 159.540 C 134.295 163.258,134.295 163.285,132.952 162.591 C 128.485 160.281,118.753 160.512,113.402 163.055 C 104.866 167.111,103.502 171.843,103.804 196.352 C 103.975 210.331,104.203 211.103,107.860 210.140 C 112.836 208.831,115.960 210.135,116.910 213.918 C 117.359 215.708,99.921 218.577,98.846 216.891 C 97.140 214.217,95.307 206.229,95.669 203.045 C 96.334 197.190,96.007 195.295,92.970 187.395 C 89.142 177.437,89.648 163.724,94.361 149.703 C 95.645 145.883,95.599 145.856,93.449 149.167 C 90.352 153.936,87.596 160.247,87.065 163.786 C 86.547 167.239,86.199 165.155,86.370 159.635 C 86.618 151.662,88.180 144.011,91.211 135.924 C 92.064 133.649,86.910 141.968,85.414 145.282 L 84.340 147.661 84.496 144.330 C 84.904 135.621,87.780 131.166,97.542 124.121 C 99.984 122.358,103.016 120.046,104.280 118.983 C 107.046 116.656,107.045 116.656,106.282 118.592 C 105.272 121.154,104.678 124.765,104.697 128.218 L 104.715 131.483 105.606 128.541 C 107.318 122.892,110.994 116.318,114.652 112.367 L 116.397 110.482 120.875 114.914 L 125.353 119.346 126.739 122.794 M34.862 140.365 C 41.434 153.599,58.510 153.445,74.703 140.006 C 77.681 137.534,77.799 137.711,74.980 140.423 C 65.530 149.515,53.013 153.772,43.957 150.975 C 37.814 149.078,33.143 142.335,32.212 134.021 C 32.060 132.660,32.146 132.817,32.818 135.131 C 33.249 136.614,34.169 138.969,34.862 140.365 M258.987 142.109 C 258.774 145.735,257.928 150.878,256.995 154.218 L 256.403 156.335 258.973 157.271 C 264.213 159.180,266.891 159.670,270.420 159.366 C 284.986 158.111,290.473 160.199,295.318 168.843 C 299.391 176.109,300.183 176.985,305.589 180.191 C 312.293 184.168,314.996 188.846,314.983 196.447 C 314.978 199.748,314.878 200.019,313.557 200.337 C 313.036 200.462,312.212 200.765,311.726 201.010 C 310.908 201.422,310.560 201.350,306.968 200.022 C 304.837 199.234,300.666 197.867,297.700 196.984 C 294.734 196.101,291.829 195.224,291.244 195.037 L 290.181 194.695 292.911 193.224 C 296.226 191.437,302.756 186.768,303.475 185.670 C 304.169 184.612,303.273 181.696,301.885 180.492 C 297.363 176.569,297.158 176.311,293.916 170.500 C 291.792 166.690,290.135 164.630,288.345 163.573 L 287.391 163.009 287.391 164.547 C 287.391 167.214,288.271 169.698,290.758 174.052 C 295.126 181.699,295.439 184.195,292.455 187.593 C 290.470 189.854,288.739 190.458,284.439 190.390 C 280.786 190.333,280.674 190.352,279.863 191.163 L 279.032 191.994 274.726 191.158 C 264.373 189.148,251.636 187.579,240.685 186.966 L 237.278 186.775 238.700 184.964 C 239.483 183.968,240.344 182.505,240.614 181.713 C 240.884 180.921,241.881 179.358,242.830 178.241 C 244.098 176.748,244.863 175.418,245.716 173.226 C 246.354 171.585,248.397 167.231,250.256 163.551 C 255.005 154.149,258.431 143.329,258.562 137.311 L 258.600 135.607 258.891 137.193 C 259.052 138.065,259.095 140.278,258.987 142.109 M120.514 148.014 C 119.312 149.309,116.732 150.951,110.389 154.458 C 102.105 159.037,101.290 159.803,99.895 164.314 C 99.196 166.574,98.996 172.727,99.574 174.174 C 99.829 174.813,99.885 174.650,99.906 173.196 C 100.013 165.939,102.850 161.806,110.332 158.010 C 116.908 154.673,119.109 152.797,120.754 149.128 C 121.642 147.145,121.582 146.864,120.514 148.014 M140.857 175.892 C 146.106 184.728,152.531 197.794,151.916 198.382 C 151.188 199.079,144.703 200.651,143.417 200.442 C 142.089 200.226,138.263 200.584,137.614 200.985 C 137.152 201.271,137.334 199.173,138.182 194.449 C 139.754 185.683,139.563 177.275,137.666 171.763 C 136.604 168.673,136.453 168.479,140.857 175.892 M116.093 171.607 C 119.092 173.137,121.680 179.081,124.381 190.642 C 124.893 192.835,125.103 194.822,125.151 197.938 C 125.210 201.752,125.313 202.474,126.094 204.540 C 127.133 207.287,127.379 206.984,122.582 208.869 L 118.757 210.372 117.190 209.378 C 114.254 207.516,111.554 207.078,108.065 207.899 C 106.442 208.281,106.195 208.276,106.034 207.855 C 105.536 206.559,106.565 179.572,107.240 176.209 C 108.098 171.935,112.376 169.711,116.093 171.607 M100.468 178.185 C 97.630 184.566,97.715 191.524,100.707 197.859 C 102.089 200.787,102.268 200.771,101.326 197.802 C 99.806 193.017,99.673 185.066,101.005 178.709 C 101.577 175.980,101.488 175.893,100.468 178.185 M322.350 196.138 C 321.961 197.913,321.561 199.669,321.461 200.040 C 321.206 200.983,323.449 201.727,327.280 201.969 C 330.739 202.188,330.705 202.243,328.427 200.097 C 326.576 198.354,323.553 194.339,323.553 193.625 C 323.553 192.143,322.948 193.407,322.350 196.138 M229.183 218.046 C 220.804 220.088,216.436 229.368,218.714 240.285 C 223.070 261.164,254.419 261.499,254.399 240.666 C 254.386 226.770,241.353 215.079,229.183 218.046 M185.820 218.833 C 174.359 222.617,172.997 237.100,183.596 242.471 C 184.499 242.929,186.561 243.677,188.178 244.134 C 193.421 245.615,195.039 247.617,192.662 249.682 C 189.709 252.249,184.809 250.898,181.706 246.663 C 177.455 240.858,174.707 243.816,177.318 251.387 C 178.905 255.989,180.042 256.590,187.629 256.842 C 199.799 257.246,206.027 252.877,206.027 243.933 C 206.027 236.812,203.223 233.590,195.026 231.288 C 188.984 229.591,187.457 227.931,189.665 225.461 C 191.531 223.374,194.360 224.072,198.321 227.596 C 200.906 229.896,202.379 230.294,203.640 229.033 C 206.351 226.321,202.508 217.810,198.831 218.382 C 197.152 218.643,196.268 218.647,191.435 218.417 C 188.226 218.264,187.345 218.329,185.820 218.833 M266.138 224.339 C 264.517 225.193,264.845 226.868,267.030 228.888 C 269.670 231.327,270.213 233.523,270.900 244.532 C 271.311 251.133,271.141 252.566,269.823 253.620 C 269.279 254.055,268.642 254.570,268.406 254.765 C 267.157 255.800,269.196 258.518,271.997 259.551 C 279.282 262.237,284.627 260.062,280.443 256.114 C 278.511 254.289,278.047 252.834,278.039 248.571 C 278.029 242.850,277.779 242.702,289.217 255.219 C 299.199 266.142,298.865 265.821,300.248 265.821 C 302.233 265.821,302.372 263.852,301.331 250.529 C 300.501 239.916,300.625 238.760,302.650 238.215 C 304.467 237.725,304.472 235.828,302.661 234.106 C 300.515 232.064,292.361 229.830,291.045 230.923 C 290.043 231.754,290.445 233.458,291.975 234.864 C 294.584 237.263,295.836 243.933,293.676 243.933 C 292.896 243.933,292.560 243.592,283.994 234.097 C 280.294 229.995,276.865 226.402,276.375 226.113 C 274.147 224.796,267.466 223.639,266.138 224.339 M235.696 225.859 C 240.965 229.612,244.707 246.175,240.748 248.222 C 236.787 250.271,232.677 244.673,230.147 233.783 C 228.580 227.035,231.497 222.870,235.696 225.859 M144.003 226.166 C 136.958 227.687,132.910 229.947,132.910 232.360 C 132.910 233.624,133.346 234.010,135.089 234.289 C 137.214 234.628,137.265 234.811,138.146 245.073 C 139.358 259.187,139.318 259.664,136.743 262.158 C 133.542 265.257,135.390 266.390,141.203 264.892 C 148.142 263.103,155.301 261.630,158.362 261.361 C 162.247 261.020,162.404 260.928,163.625 258.277 C 165.766 253.633,165.630 248.636,163.330 247.405 C 161.839 246.607,160.866 247.539,160.330 250.278 C 159.670 253.651,157.271 255.874,153.688 256.431 C 150.524 256.923,150.191 255.980,149.395 244.259 C 148.508 231.187,148.448 232.056,150.357 230.264 C 154.355 226.511,151.360 224.579,144.003 226.166 M114.988 234.694 C 106.203 237.226,100.503 242.684,104.600 244.641 C 106.924 245.752,107.236 246.908,107.867 256.780 C 108.467 266.182,108.271 268.814,106.820 270.789 C 103.049 275.922,108.996 276.245,118.892 271.444 C 123.806 269.059,125.403 265.807,122.082 264.947 C 120.041 264.418,119.672 263.077,118.950 253.576 C 118.123 242.697,118.335 240.483,120.426 238.143 C 123.344 234.880,120.531 233.096,114.988 234.694 M87.071 246.877 C 82.551 249.258,81.378 250.481,81.583 252.598 C 81.672 253.512,81.799 253.623,82.918 253.767 C 84.823 254.011,84.890 254.376,83.920 259.183 C 82.401 266.700,81.770 267.208,79.095 263.067 C 76.480 259.018,76.433 258.833,77.511 256.840 C 79.811 252.587,77.721 252.010,71.492 255.177 C 62.554 259.721,58.905 264.363,63.509 265.329 C 64.095 265.452,64.632 265.957,65.190 266.909 L 66.010 268.308 65.321 271.267 C 64.155 276.273,63.451 276.979,61.969 274.631 C 59.973 271.470,58.925 269.007,59.127 267.954 C 60.092 262.918,59.623 262.444,55.589 264.378 C 50.443 266.844,45.383 270.862,44.875 272.885 C 44.455 274.558,44.801 275.488,45.883 275.593 C 47.275 275.728,47.212 275.633,53.169 286.719 C 59.362 298.243,59.402 298.284,62.492 296.202 C 64.190 295.057,64.630 293.945,66.818 285.259 C 69.736 273.681,69.328 273.906,73.577 281.530 C 76.868 287.433,77.082 287.708,78.389 287.708 C 82.274 287.708,82.973 285.857,88.958 259.697 C 90.360 253.572,90.899 251.766,91.814 250.130 C 94.405 245.497,92.356 244.092,87.071 246.877 M198.731 263.713 C 191.374 266.131,188.312 273.316,191.844 279.874 C 197.140 289.706,213.639 285.431,213.639 274.227 C 213.639 266.775,205.940 261.345,198.731 263.713 M202.603 269.364 C 205.740 272.379,207.485 277.899,205.851 279.638 C 203.651 281.980,199.339 278.127,197.610 272.273 C 196.518 268.576,199.796 266.666,202.603 269.364 M169.800 269.643 C 160.398 270.946,156.392 282.007,162.948 288.563 C 167.062 292.677,175.452 292.431,179.815 288.068 C 187.335 280.548,180.594 268.147,169.800 269.643 M140.523 275.993 C 137.296 276.840,133.993 277.539,133.183 277.546 C 130.229 277.569,129.234 284.042,132.007 285.190 C 133.186 285.679,133.586 285.337,134.398 283.142 C 135.056 281.363,136.065 280.478,137.750 280.205 C 139.620 279.901,139.553 280.412,136.591 289.066 C 133.772 297.299,133.519 298.382,134.342 298.697 C 134.814 298.879,151.337 295.776,152.260 295.333 C 153.853 294.568,154.384 289.560,153.018 288.194 C 151.765 286.941,150.510 287.594,149.698 289.922 C 149.149 291.497,147.718 292.532,145.563 292.911 C 143.456 293.282,143.482 293.006,146.412 284.204 C 150.123 273.053,150.375 273.405,140.523 275.993 M171.761 275.682 C 176.281 279.847,177.232 286.757,173.287 286.757 C 171.333 286.757,168.091 282.735,166.984 278.936 C 165.797 274.866,168.718 272.876,171.761 275.682 " stroke="none" fill="#050504" fill-rule="evenodd"></path><path id="path1" d="M240.127 9.166 C 236.066 10.065,232.574 11.577,228.866 14.041 C 225.039 16.583,168.121 73.867,168.120 75.176 C 168.120 76.833,167.020 83.234,165.749 88.977 C 163.836 97.615,163.070 103.272,163.532 105.354 L 163.769 106.423 164.158 105.313 C 164.372 104.703,166.191 100.777,168.200 96.590 C 173.263 86.040,175.238 80.543,176.232 74.231 C 176.493 72.571,176.752 71.071,176.806 70.896 C 177.357 69.130,183.577 85.850,185.361 93.894 C 189.957 114.606,187.390 124.818,171.925 147.343 C 166.100 155.828,163.460 160.415,162.236 164.176 L 161.360 166.871 158.674 163.993 C 155.457 160.546,155.547 160.507,156.350 164.997 C 156.704 166.976,157.208 170.836,157.470 173.573 C 157.933 178.408,157.987 178.632,159.380 181.476 C 162.754 188.369,166.049 194.132,166.616 194.132 C 167.119 194.132,177.071 191.948,177.213 191.806 C 177.244 191.775,176.854 189.994,176.345 187.849 C 174.972 182.065,171.787 174.756,166.466 165.179 L 164.568 161.762 165.918 159.469 C 166.926 157.757,177.164 142.336,177.846 141.501 C 178.152 141.127,178.543 142.674,180.815 153.276 C 186.262 178.690,188.999 188.648,190.450 188.334 C 196.236 187.080,196.830 187.029,199.114 187.584 C 200.941 188.028,201.820 188.069,204.153 187.817 C 206.961 187.514,214.630 187.015,222.522 186.623 C 224.790 186.510,226.289 186.327,225.854 186.216 C 224.841 185.959,224.737 185.341,225.352 183.227 C 226.138 180.523,226.556 180.187,229.503 179.891 C 235.132 179.325,236.593 177.216,238.838 166.421 C 241.259 154.782,241.339 149.675,239.150 146.626 C 238.586 145.841,237.724 144.182,237.233 142.940 C 236.291 140.551,236.017 140.685,236.765 143.169 C 237.330 145.046,237.061 145.038,235.778 143.140 C 233.788 140.198,233.111 138.239,232.928 134.887 C 232.788 132.346,232.614 131.548,231.941 130.373 C 231.492 129.588,230.860 128.303,230.536 127.518 C 230.017 126.258,229.968 126.213,230.116 127.137 C 230.392 128.857,229.734 127.992,229.008 125.680 C 228.607 124.405,228.241 122.081,228.094 119.877 C 227.828 115.882,227.192 113.978,225.198 111.200 L 224.198 109.808 222.091 110.618 C 219.783 111.505,213.164 112.089,213.164 111.405 C 213.164 110.700,214.762 109.223,216.307 108.499 C 218.329 107.552,218.217 107.388,215.994 108.041 C 214.002 108.627,213.321 109.155,212.512 110.741 C 210.517 114.650,205.860 116.229,206.690 112.715 C 207.589 108.910,210.250 105.604,212.599 105.377 L 214.274 105.215 212.246 104.642 C 209.300 103.809,208.151 102.625,209.318 101.625 C 209.648 101.344,209.847 100.863,209.765 100.549 C 209.666 100.170,209.843 99.910,210.298 99.766 C 211.175 99.487,211.020 98.629,210.003 98.122 L 209.226 97.735 210.085 97.408 C 210.966 97.073,213.037 96.711,217.378 96.131 C 220.304 95.741,221.546 95.168,222.199 93.905 C 222.834 92.676,224.021 91.814,228.338 89.446 C 233.163 86.800,233.905 86.022,234.593 82.885 C 236.735 73.126,238.269 73.686,240.792 85.149 C 242.472 92.783,243.011 94.131,247.572 102.125 C 252.801 111.289,259.220 116.211,275.289 123.381 C 299.759 134.300,313.642 146.867,317.499 161.590 C 318.887 166.890,319.593 179.711,318.415 178.228 C 316.510 175.830,314.977 171.647,314.187 166.693 C 313.691 163.587,313.587 165.207,314.060 168.653 C 314.853 174.428,316.608 177.827,320.429 180.988 C 324.107 184.031,324.084 183.507,321.113 196.669 C 320.306 200.246,319.632 203.508,319.617 203.918 C 319.591 204.589,320.293 204.982,326.666 207.861 L 333.745 211.059 354.852 189.986 C 375.776 169.096,378.692 165.997,380.731 162.484 C 386.733 152.142,386.398 139.645,379.845 129.492 C 377.423 125.739,268.552 16.751,264.469 13.992 C 257.482 9.270,248.075 7.405,240.127 9.166 M149.575 47.343 C 152.949 51.096,157.859 59.676,160.374 66.213 C 161.551 69.273,161.596 69.041,160.838 63.849 C 159.572 55.184,156.318 49.804,150.471 46.709 C 147.889 45.342,147.820 45.391,149.575 47.343 M142.989 53.285 C 135.446 54.875,129.917 57.574,125.517 61.814 C 123.336 63.915,124.536 60.823,127.220 57.428 L 128.554 55.741 127.289 56.452 C 121.946 59.455,117.372 66.627,115.438 75.035 C 114.819 77.727,115.690 79.996,116.850 78.714 C 117.444 78.057,117.243 77.082,116.514 77.082 C 116.256 77.082,116.104 76.903,116.176 76.685 C 116.376 76.075,118.329 74.861,119.111 74.861 C 119.620 74.861,119.966 74.513,120.389 73.574 C 121.148 71.890,121.690 72.628,121.154 74.617 C 120.594 76.698,119.718 78.251,117.291 81.463 C 114.742 84.836,114.762 85.056,117.625 85.263 C 119.060 85.367,119.768 85.250,120.756 84.746 C 121.894 84.165,123.039 83.848,124.280 83.769 C 124.506 83.755,125.420 83.065,126.312 82.236 C 127.916 80.746,127.931 80.740,127.703 81.681 C 127.057 84.361,124.982 86.954,122.558 88.110 C 120.525 89.079,121.904 92.799,124.821 94.211 C 126.678 95.109,128.070 94.996,132.705 93.566 C 136.809 92.300,136.597 92.015,131.324 91.707 L 127.994 91.513 129.090 90.916 C 130.031 90.405,130.652 90.344,133.450 90.487 C 135.244 90.578,136.640 90.536,136.551 90.393 C 136.199 89.823,133.883 89.338,131.406 89.317 C 129.968 89.304,128.790 89.210,128.789 89.107 C 128.783 88.626,130.779 88.080,133.228 87.893 L 135.924 87.688 134.243 87.301 C 133.318 87.089,131.748 86.909,130.754 86.902 L 128.945 86.890 129.897 86.370 C 130.468 86.058,131.927 85.785,133.545 85.688 C 136.575 85.507,135.883 85.140,132.276 85.016 L 130.214 84.945 131.483 84.527 C 132.181 84.297,133.224 84.098,133.801 84.085 C 135.241 84.051,134.818 83.567,132.926 83.082 C 130.689 82.509,131.272 82.022,133.826 82.329 C 139.489 83.010,142.344 82.462,143.983 80.378 L 144.647 79.534 144.647 80.521 C 144.647 82.577,142.920 86.350,138.591 93.751 C 131.216 106.358,131.582 111.046,140.592 119.416 C 143.693 122.297,143.729 122.285,142.120 118.920 C 138.934 112.256,138.878 107.290,141.921 101.249 C 143.367 98.377,143.799 98.128,142.984 100.637 C 141.707 104.566,142.225 109.109,144.345 112.566 C 145.095 113.790,145.454 113.738,144.973 112.474 C 144.205 110.454,144.646 106.476,145.986 103.331 C 146.718 101.615,147.185 101.392,147.185 102.759 C 147.185 103.274,147.565 104.879,148.029 106.328 L 148.873 108.961 149.276 106.242 C 150.144 100.400,152.281 93.870,155.446 87.391 C 157.284 83.629,158.287 80.638,158.287 78.918 C 158.287 78.432,158.423 78.033,158.589 78.033 C 158.974 78.033,162.345 81.938,163.314 83.507 C 164.252 85.023,164.269 85.012,163.962 83.070 C 163.150 77.930,159.757 72.019,156.063 69.307 C 154.198 67.938,153.660 67.871,154.288 69.086 C 155.545 71.517,155.572 76.587,154.343 79.396 L 153.898 80.412 153.872 78.496 C 153.795 72.790,149.913 66.427,144.680 63.430 C 142.457 62.156,142.439 62.116,143.689 61.226 C 147.512 58.504,152.460 57.549,153.199 59.390 C 153.445 60.002,153.492 59.912,153.509 58.791 C 153.579 54.200,148.407 54.720,137.872 60.364 C 135.977 61.379,134.368 62.150,134.296 62.078 C 133.563 61.345,141.386 55.257,145.156 53.626 C 147.714 52.519,147.088 52.421,142.989 53.285 M136.717 69.627 L 135.972 70.420 137.275 70.420 C 137.992 70.420,138.981 70.584,139.472 70.783 L 140.365 71.146 139.152 71.455 L 137.939 71.763 138.994 72.412 L 140.048 73.061 138.359 73.834 C 137.192 74.368,135.868 74.660,134.077 74.776 C 132.650 74.870,131.220 75.082,130.898 75.248 C 130.387 75.512,130.343 75.456,130.547 74.812 C 130.737 74.212,130.698 74.136,130.339 74.408 C 130.096 74.593,129.290 75.210,128.549 75.781 C 126.811 77.118,126.835 77.023,129.135 73.436 C 131.301 70.058,131.227 70.124,131.644 71.219 L 131.948 72.018 134.412 70.446 C 137.171 68.685,137.818 68.456,136.717 69.627 M234.067 76.617 C 235.253 77.968,235.247 77.781,234.237 81.872 C 233.391 85.298,232.829 86.247,231.126 87.133 L 230.214 87.607 230.440 84.803 C 231.101 76.623,232.098 74.374,234.067 76.617 M115.639 88.157 C 115.030 89.142,116.555 93.458,117.879 94.500 C 120.496 96.558,122.446 93.238,119.955 90.967 C 118.455 89.600,115.811 87.879,115.639 88.157 M178.598 95.384 C 178.543 101.228,174.201 113.298,170.025 119.217 C 167.969 122.133,167.869 122.011,168.857 117.784 C 170.289 111.655,170.319 111.792,168.207 114.860 C 164.255 120.600,158.368 127.114,153.695 130.918 L 152.116 132.203 154.597 134.936 C 155.962 136.439,156.991 137.669,156.885 137.669 C 156.523 137.669,144.406 131.412,140.515 129.216 C 138.172 127.894,132.890 123.933,130.437 121.660 C 128.145 119.535,128.182 119.844,130.741 124.187 C 134.696 130.900,146.505 143.927,157.358 153.549 L 159.495 155.443 159.721 153.772 C 160.346 149.158,162.453 143.896,167.027 135.527 C 168.719 132.430,170.569 129.040,171.138 127.994 C 174.033 122.668,176.578 115.641,177.797 109.614 C 178.702 105.137,179.424 95.771,178.930 94.923 C 178.663 94.464,178.606 94.543,178.598 95.384 M223.381 95.810 C 223.043 96.350,223.076 96.431,223.629 96.431 C 224.305 96.431,224.410 96.197,224.013 95.572 C 223.837 95.295,223.661 95.361,223.381 95.810 M121.535 96.125 C 121.046 96.532,120.313 96.749,119.422 96.749 C 116.917 96.749,117.127 100.957,119.791 104.148 L 120.539 105.045 120.539 103.752 C 120.539 101.746,121.024 102.214,121.828 104.996 C 122.865 108.588,123.648 108.161,123.227 104.233 C 122.971 101.839,123.377 101.343,124.154 103.104 C 124.712 104.369,126.568 106.102,128.311 106.986 L 129.262 107.468 129.304 105.994 C 129.385 103.120,130.489 99.387,130.956 100.412 L 131.355 101.287 131.855 100.573 C 132.523 99.620,132.486 98.592,131.738 97.322 C 131.067 96.181,130.908 96.153,127.518 96.589 C 126.124 96.769,125.422 96.680,124.029 96.147 C 123.069 95.780,122.284 95.485,122.284 95.490 C 122.284 95.496,121.947 95.782,121.535 96.125 M114.804 112.375 C 110.761 117.000,107.376 123.140,105.692 128.906 C 104.676 132.387,104.358 132.333,104.368 128.681 C 104.376 125.603,104.833 122.664,105.752 119.770 L 106.518 117.357 105.360 118.326 C 104.724 118.859,101.705 121.168,98.652 123.459 C 87.281 131.990,85.310 134.927,84.544 144.489 L 84.341 147.026 86.032 143.695 C 87.541 140.725,91.353 134.705,91.582 134.933 C 91.630 134.982,91.237 136.295,90.708 137.852 C 87.626 146.921,84.892 164.314,86.549 164.314 C 86.750 164.314,86.915 164.014,86.915 163.647 C 86.915 161.328,90.435 153.453,93.669 148.538 C 96.034 144.942,96.131 144.997,94.720 149.136 C 89.746 163.727,89.211 177.624,93.234 187.726 C 95.848 194.290,96.233 195.994,95.953 199.785 C 95.497 205.983,95.927 208.881,98.221 215.072 C 99.375 218.185,101.189 218.238,112.768 215.499 C 117.360 214.412,117.175 214.564,116.159 212.712 C 114.545 209.767,112.444 209.119,108.168 210.245 C 106.860 210.590,105.666 210.799,105.515 210.709 C 102.455 208.877,102.736 175.754,105.864 169.563 C 109.611 162.149,124.560 158.098,132.679 162.297 C 133.981 162.970,133.983 162.896,132.755 159.249 C 131.652 155.972,130.042 149.378,130.071 148.257 C 130.080 147.929,130.574 149.017,131.168 150.674 C 132.638 154.772,135.338 160.056,139.919 167.803 C 142.034 171.380,145.319 177.232,147.219 180.809 C 151.135 188.181,151.171 188.178,149.872 180.626 C 149.430 178.062,149.124 175.909,149.191 175.842 C 149.540 175.493,151.039 179.823,151.625 182.871 C 151.994 184.790,152.501 187.439,152.751 188.758 C 153.571 193.077,157.816 203.647,158.732 203.649 C 159.733 203.650,173.196 199.687,173.196 199.390 C 173.196 197.967,170.298 196.398,167.225 196.159 C 163.705 195.885,163.799 195.942,162.453 193.253 C 161.777 191.905,160.762 189.730,160.197 188.422 C 159.183 186.077,155.661 178.460,153.156 173.196 C 152.450 171.713,150.811 168.678,149.514 166.452 C 147.130 162.363,145.591 158.862,145.608 157.566 C 145.614 157.158,146.316 158.265,147.273 160.190 C 149.126 163.917,149.889 165.094,151.911 167.354 C 153.043 168.619,153.269 168.764,153.107 168.121 C 152.997 167.684,152.810 164.801,152.693 161.712 L 152.479 156.097 149.911 154.375 C 140.649 148.165,132.451 137.093,126.678 122.998 L 125.243 119.494 120.798 115.100 C 118.353 112.683,116.331 110.708,116.305 110.710 C 116.278 110.712,115.603 111.461,114.804 112.375 M258.433 140.003 C 257.702 146.362,254.571 155.507,250.219 163.997 C 248.564 167.224,246.668 171.267,246.006 172.980 C 245.122 175.269,244.329 176.675,243.020 178.278 C 242.039 179.478,240.987 181.166,240.681 182.029 C 240.374 182.892,239.489 184.305,238.712 185.168 L 237.301 186.739 242.124 186.936 C 251.229 187.308,269.336 189.635,276.902 191.405 C 278.935 191.880,278.945 191.879,279.720 191.104 C 280.624 190.200,280.474 190.226,285.012 190.192 C 289.098 190.162,290.304 189.693,292.391 187.322 C 295.042 184.310,294.870 181.674,291.651 176.021 C 288.030 169.661,286.139 164.192,287.195 163.135 C 288.171 162.160,291.362 165.579,294.070 170.500 C 296.878 175.603,298.384 177.594,300.733 179.312 C 303.203 181.118,304.519 184.109,303.600 185.826 C 303.143 186.678,296.233 191.615,293.266 193.208 L 290.556 194.664 297.088 196.623 C 300.681 197.700,305.200 199.173,307.131 199.897 C 310.343 201.101,310.727 201.178,311.626 200.805 C 312.167 200.580,313.063 200.328,313.618 200.245 C 314.603 200.098,314.633 200.045,314.844 198.066 C 315.671 190.351,312.195 183.969,305.005 180.001 C 300.902 177.736,298.858 175.553,296.114 170.508 C 290.958 161.024,284.918 157.936,274.213 159.309 C 268.369 160.059,265.631 159.745,259.486 157.618 C 256.037 156.424,256.182 156.695,257.087 153.124 C 258.202 148.729,258.885 143.636,258.777 140.518 L 258.684 137.827 258.433 140.003 M120.729 149.520 C 119.070 152.970,116.975 154.762,111.057 157.794 C 102.795 162.026,100.039 166.073,99.922 174.148 C 99.882 176.906,99.249 174.597,99.070 171.042 C 98.652 162.707,100.547 159.691,109.166 154.971 C 117.679 150.309,120.376 148.518,121.197 146.981 C 122.217 145.072,121.812 147.268,120.729 149.520 M101.514 177.020 C 99.790 183.461,99.873 193.057,101.700 198.535 C 102.782 201.776,102.475 201.664,100.759 198.191 C 97.425 191.442,97.360 183.967,100.579 177.589 C 101.630 175.507,101.976 175.296,101.514 177.020 M324.070 194.356 C 324.606 195.423,326.135 197.377,327.793 199.114 L 330.606 202.062 329.379 202.090 C 325.334 202.183,321.793 201.535,321.449 200.640 C 321.355 200.395,321.648 198.551,322.098 196.541 C 322.549 194.531,322.918 192.809,322.918 192.716 C 322.918 192.248,323.242 192.709,324.070 194.356 " stroke="none" fill="#f3b304" fill-rule="evenodd"></path><path id="path2" d="M0.000 163.204 L 0.000 326.408 200.000 326.408 L 400.000 326.408 400.000 163.204 L 400.000 0.000 200.000 0.000 L 0.000 0.000 0.000 163.204 M255.126 9.642 C 258.844 10.748,261.498 11.984,264.469 13.992 C 268.552 16.751,377.423 125.739,379.845 129.492 C 386.969 140.530,386.702 154.146,379.149 164.948 C 378.266 166.210,365.021 179.715,345.022 199.743 L 312.338 232.475 309.460 230.931 C 281.972 216.176,246.617 207.785,211.895 207.776 C 158.638 207.761,96.512 227.754,45.159 261.433 L 40.358 264.582 40.968 266.188 C 47.261 282.750,43.152 300.516,30.061 313.341 L 28.019 315.342 26.892 312.865 C 20.007 297.747,21.424 281.656,30.779 268.716 C 31.835 267.255,32.468 266.149,32.185 266.257 C 23.925 269.427,14.272 268.122,5.807 262.692 C 1.342 259.827,1.341 259.830,7.023 257.110 C 16.000 252.813,24.521 252.724,32.943 256.839 C 36.700 258.674,36.069 258.761,39.712 255.913 C 44.098 252.485,50.083 248.176,56.438 243.870 L 61.964 240.127 58.867 240.127 C 49.356 240.127,40.609 235.965,33.870 228.232 C 31.585 225.609,28.549 221.249,28.549 220.590 C 28.549 219.461,41.544 218.847,45.837 219.773 C 54.479 221.637,61.319 226.170,67.186 233.920 L 68.729 235.959 72.914 233.444 C 77.934 230.428,86.595 225.602,93.044 222.227 C 96.825 220.247,97.704 219.663,97.534 219.241 C 94.683 212.143,93.470 206.449,93.738 201.427 C 93.994 196.641,93.619 194.699,91.498 189.828 C 82.978 170.262,78.624 153.262,79.449 142.792 L 79.657 140.144 77.814 141.481 C 67.922 148.657,56.957 153.212,49.575 153.212 C 27.855 153.212,22.574 122.427,42.030 109.228 C 48.777 104.651,51.738 103.992,65.028 104.111 C 76.264 104.211,76.963 104.128,80.678 102.245 C 87.642 98.717,89.463 89.137,84.092 84.285 C 80.937 81.435,78.737 80.892,68.993 80.560 C 55.686 80.106,51.405 77.856,47.288 69.149 C 46.084 66.603,46.201 66.506,48.280 68.326 C 49.713 69.581,54.350 72.324,55.038 72.324 C 55.160 72.324,54.816 71.818,54.273 71.200 C 50.723 67.157,49.466 59.889,51.422 54.718 C 52.233 52.575,52.168 52.499,52.971 56.533 C 54.485 64.139,59.934 68.237,73.751 72.159 C 83.538 74.938,86.069 76.197,89.722 80.110 C 98.134 89.117,96.565 102.402,86.502 107.375 C 82.431 109.387,79.383 109.802,67.883 109.907 C 56.648 110.010,55.599 110.159,51.229 112.282 C 37.671 118.868,34.233 138.375,45.864 142.727 C 52.168 145.086,65.195 140.286,74.703 132.101 C 80.341 127.247,83.488 125.176,91.096 121.317 C 100.001 116.800,108.137 109.917,111.753 103.843 C 111.871 103.644,111.410 102.288,110.728 100.829 C 107.385 93.669,106.268 86.214,107.801 81.288 L 108.385 79.410 107.624 78.484 C 101.766 71.350,104.022 58.996,112.875 49.730 C 115.719 46.754,115.821 46.733,115.230 49.247 C 114.625 51.826,114.859 55.635,115.799 58.463 C 116.572 60.789,117.036 60.802,117.045 58.496 C 117.081 49.018,126.077 39.968,135.464 39.968 C 143.354 39.968,152.647 43.559,159.994 49.446 C 164.937 53.407,169.088 64.810,168.357 72.418 L 168.207 73.977 197.585 44.641 C 229.530 12.742,229.176 13.059,235.759 10.431 C 240.982 8.345,249.587 7.995,255.126 9.642 M55.031 66.614 C 56.552 71.979,60.244 75.115,65.409 75.427 C 68.693 75.626,69.564 75.263,67.248 74.660 C 63.331 73.640,58.926 70.868,56.610 67.967 C 54.878 65.797,54.774 65.708,55.031 66.614 M32.990 137.058 C 32.990 141.000,38.039 148.070,42.268 150.049 C 50.570 153.934,66.917 149.177,74.544 140.656 C 75.197 139.926,75.085 139.970,73.910 140.903 C 57.596 153.857,41.164 153.541,34.594 140.149 C 33.711 138.351,32.990 136.960,32.990 137.058 M111.537 171.360 C 107.430 172.469,106.974 174.663,106.306 196.511 C 105.998 206.597,106.074 208.183,106.854 207.963 C 111.137 206.752,114.521 207.211,117.656 209.429 L 118.739 210.194 122.097 208.822 C 123.945 208.068,125.761 207.319,126.135 207.158 L 126.813 206.866 125.783 204.127 C 124.826 201.583,124.764 201.184,124.906 198.474 C 125.205 192.754,121.911 179.857,118.855 174.784 C 117.078 171.832,114.409 170.584,111.537 171.360 M138.286 173.073 C 139.842 178.094,139.925 185.633,138.516 193.814 C 137.410 200.241,137.359 200.866,137.969 200.589 C 138.240 200.466,140.103 200.333,142.109 200.293 C 145.592 200.224,150.467 199.156,151.422 198.253 C 152.136 197.579,146.900 186.546,141.588 177.531 C 137.569 170.710,137.544 170.675,138.286 173.073 M236.729 217.750 C 253.992 220.828,261.286 247.635,246.729 254.502 C 234.766 260.144,220.913 252.846,218.371 239.564 C 215.651 225.344,223.957 215.474,236.729 217.750 M194.253 218.286 C 195.660 218.569,196.441 218.561,197.739 218.249 C 199.768 217.763,200.831 218.183,202.301 220.054 C 207.459 226.617,204.359 233.069,198.502 227.961 C 194.804 224.735,192.526 223.921,190.348 225.048 C 187.730 226.402,189.073 229.438,192.737 230.446 C 201.825 232.948,204.506 234.925,206.038 240.257 C 208.686 249.466,202.166 256.539,190.459 257.159 C 180.226 257.701,176.447 254.971,176.261 246.903 C 176.149 242.025,178.431 241.882,181.875 246.550 C 185.110 250.935,190.903 252.128,193.049 248.852 C 194.265 246.996,192.894 245.725,188.219 244.370 C 180.659 242.181,176.595 238.066,176.147 232.147 C 175.457 223.020,184.262 216.280,194.253 218.286 M272.509 224.607 C 276.332 225.504,276.866 225.935,284.093 233.941 C 294.631 245.617,294.238 245.340,294.167 241.041 C 294.115 237.907,293.572 236.369,292.147 235.321 C 289.519 233.386,289.727 230.293,292.486 230.293 C 293.567 230.293,297.505 231.312,299.921 232.216 C 304.304 233.857,305.783 237.609,302.399 238.504 C 300.900 238.900,300.815 240.367,301.650 251.544 C 302.442 262.152,302.419 264.496,301.511 265.499 C 300.004 267.164,299.335 266.618,289.260 255.511 C 278.186 243.302,278.048 243.213,278.140 248.276 C 278.217 252.535,278.650 253.897,280.601 256.020 C 284.009 259.727,281.835 261.685,275.534 260.585 C 269.056 259.454,265.825 256.046,269.226 253.930 C 270.915 252.879,271.076 251.808,270.649 244.451 C 270.022 233.658,269.362 231.075,266.602 228.615 C 262.460 224.923,265.390 222.936,272.509 224.607 M232.013 225.354 C 226.869 227.580,233.071 248.374,238.880 248.374 C 242.124 248.374,243.110 245.422,241.865 239.434 C 239.896 229.961,235.589 223.806,232.013 225.354 M151.621 226.007 C 152.635 226.924,152.470 228.520,151.252 229.577 C 148.795 231.710,148.970 231.095,149.208 236.764 C 149.822 251.400,150.469 255.764,152.083 256.170 C 155.544 257.038,159.415 254.051,160.201 249.903 C 160.575 247.934,161.244 247.105,162.460 247.105 C 165.768 247.105,166.311 253.922,163.428 259.261 C 162.386 261.192,162.181 261.292,158.745 261.549 C 155.853 261.765,148.955 263.141,142.135 264.863 C 135.191 266.616,133.349 265.405,137.034 261.509 L 138.620 259.832 138.616 256.403 C 138.609 251.608,137.192 235.783,136.718 235.211 C 136.508 234.958,135.815 234.660,135.178 234.549 C 132.404 234.063,131.798 232.490,133.597 230.441 C 136.576 227.048,149.310 223.915,151.621 226.007 M121.174 234.417 C 122.202 235.445,121.976 236.638,120.404 238.480 C 118.602 240.590,118.449 241.720,118.922 249.398 C 119.731 262.515,120.010 263.954,121.890 264.706 C 125.518 266.158,124.030 269.281,118.470 271.887 C 109.271 276.198,102.840 275.996,106.093 271.498 C 108.013 268.843,107.961 269.166,107.751 261.226 C 107.411 248.336,106.919 245.756,104.621 244.801 C 100.763 243.198,102.830 240.132,110.230 236.483 C 115.635 233.818,119.790 233.034,121.174 234.417 M92.761 245.701 C 93.543 246.482,93.359 247.551,91.988 250.200 C 90.911 252.280,90.422 253.971,88.797 261.221 C 83.845 283.316,82.810 286.436,80.041 287.593 C 77.485 288.660,77.168 288.369,73.255 281.364 C 71.647 278.485,70.276 276.067,70.209 275.990 C 69.722 275.430,68.878 277.878,67.124 284.937 C 64.888 293.932,64.434 295.083,62.620 296.339 C 59.374 298.586,59.065 298.267,52.352 285.726 L 47.131 275.971 46.081 275.971 C 42.409 275.971,44.727 270.939,50.052 267.345 C 56.792 262.797,60.363 262.094,59.832 265.420 C 59.195 269.409,59.157 269.092,60.597 271.794 C 61.343 273.193,62.267 274.732,62.651 275.214 L 63.350 276.090 63.886 275.271 C 64.181 274.821,64.725 273.017,65.094 271.262 L 65.766 268.071 64.917 266.787 C 64.242 265.767,63.874 265.504,63.127 265.504 C 58.976 265.504,62.119 260.254,68.530 256.478 C 76.568 251.745,80.793 251.738,77.883 256.463 C 76.806 258.211,76.881 258.985,78.375 261.543 C 81.764 267.349,82.148 267.147,83.798 258.680 C 84.600 254.562,84.514 254.084,82.971 254.084 C 81.786 254.084,81.205 253.455,81.205 252.171 C 81.205 249.025,90.744 243.684,92.761 245.701 M205.746 263.435 C 210.433 264.827,213.837 269.262,213.908 274.068 C 214.080 285.654,197.065 289.964,191.586 279.723 C 186.790 270.758,195.739 260.463,205.746 263.435 M198.814 268.538 C 195.278 270.456,201.214 281.629,204.948 280.082 C 208.020 278.810,205.004 270.194,200.883 268.469 C 199.675 267.963,199.886 267.956,198.814 268.538 M176.531 270.261 C 188.017 275.799,183.791 291.623,170.817 291.660 C 157.592 291.697,155.154 274.086,167.803 269.887 C 170.314 269.053,174.389 269.228,176.531 270.261 M149.132 274.830 C 149.426 275.475,149.054 276.865,146.710 283.898 C 143.725 292.854,143.711 292.998,145.833 292.639 C 147.737 292.317,148.967 291.420,149.408 290.032 C 150.031 288.069,150.590 287.391,151.584 287.391 C 155.030 287.391,154.755 295.590,151.298 295.894 C 150.693 295.947,146.660 296.709,142.336 297.588 C 131.850 299.719,132.427 300.547,136.378 289.042 C 139.308 280.506,139.327 280.412,138.081 280.412 C 136.298 280.412,135.230 281.217,134.649 282.998 C 133.071 287.833,129.229 285.398,130.515 280.378 C 131.169 277.824,131.695 277.242,133.356 277.233 C 134.808 277.226,138.389 276.453,143.378 275.071 C 147.702 273.873,148.677 273.833,149.132 274.830 M168.250 274.687 C 165.824 275.693,167.142 281.253,170.679 284.933 C 173.548 287.917,176.437 286.395,175.437 282.425 C 174.207 277.541,170.637 273.697,168.250 274.687 " stroke="none" fill="#fbfbfb" fill-rule="evenodd"></path><path id="path3" d="M132.355 74.771 C 132.835 74.844,133.620 74.844,134.100 74.771 C 134.580 74.699,134.187 74.639,133.228 74.639 C 132.268 74.639,131.875 74.699,132.355 74.771 M153.846 78.845 C 153.846 79.466,153.965 79.900,154.110 79.811 C 154.361 79.656,154.229 77.716,153.969 77.716 C 153.901 77.716,153.846 78.224,153.846 78.845 M128.292 91.386 C 128.195 91.544,128.480 91.673,128.927 91.673 C 129.899 91.673,129.977 91.492,129.104 91.264 C 128.755 91.173,128.390 91.228,128.292 91.386 M178.787 92.665 C 178.522 93.987,178.779 94.243,179.064 92.942 C 179.185 92.394,179.217 91.879,179.136 91.798 C 179.055 91.717,178.898 92.107,178.787 92.665 M149.020 108.168 C 148.944 108.692,148.999 109.120,149.143 109.120 C 149.287 109.120,149.405 108.692,149.405 108.168 C 149.405 107.645,149.350 107.216,149.283 107.216 C 149.215 107.216,149.097 107.645,149.020 108.168 M139.645 109.754 C 139.645 110.365,139.711 110.615,139.790 110.309 C 139.870 110.004,139.870 109.504,139.790 109.199 C 139.711 108.894,139.645 109.144,139.645 109.754 M120.063 114.512 C 120.923 115.385,121.697 116.098,121.784 116.098 C 121.871 116.098,121.240 115.385,120.381 114.512 C 119.521 113.640,118.747 112.926,118.660 112.926 C 118.573 112.926,119.204 113.640,120.063 114.512 M138.303 117.466 C 138.303 117.521,138.767 117.985,139.334 118.497 L 140.365 119.429 139.433 118.398 C 138.565 117.437,138.303 117.221,138.303 117.466 M228.168 120.222 C 228.168 121.182,228.227 121.574,228.300 121.094 C 228.373 120.615,228.373 119.830,228.300 119.350 C 228.227 118.870,228.168 119.262,228.168 120.222 M104.466 128.628 C 104.467 129.849,104.524 130.310,104.593 129.652 C 104.662 128.994,104.661 127.995,104.591 127.431 C 104.520 126.868,104.464 127.407,104.466 128.628 M258.944 140.206 C 258.944 141.340,259.001 141.804,259.072 141.237 C 259.142 140.670,259.142 139.742,259.072 139.175 C 259.001 138.608,258.944 139.072,258.944 140.206 M152.651 161.142 C 152.651 161.753,152.716 162.002,152.796 161.697 C 152.876 161.392,152.876 160.892,152.796 160.587 C 152.716 160.282,152.651 160.531,152.651 161.142 M120.623 161.052 C 121.105 161.125,121.819 161.123,122.209 161.048 C 122.599 160.973,122.205 160.913,121.332 160.915 C 120.460 160.918,120.141 160.979,120.623 161.052 M124.905 161.049 C 125.299 161.125,125.870 161.122,126.173 161.043 C 126.477 160.963,126.154 160.901,125.456 160.905 C 124.758 160.908,124.510 160.973,124.905 161.049 M313.467 163.045 C 313.467 164.692,313.516 164.899,313.712 164.076 C 313.846 163.509,313.846 162.581,313.712 162.014 C 313.516 161.191,313.467 161.399,313.467 163.045 M99.043 170.975 C 99.043 171.586,99.108 171.836,99.188 171.531 C 99.268 171.225,99.268 170.726,99.188 170.420 C 99.108 170.115,99.043 170.365,99.043 170.975 M100.016 188.422 C 100.016 189.381,100.075 189.774,100.148 189.294 C 100.221 188.814,100.221 188.029,100.148 187.550 C 100.075 187.070,100.016 187.462,100.016 188.422 M241.158 187.055 C 241.463 187.134,241.963 187.134,242.268 187.055 C 242.573 186.975,242.324 186.909,241.713 186.909 C 241.102 186.909,240.852 186.975,241.158 187.055 M282.078 190.227 C 282.383 190.306,282.883 190.306,283.188 190.227 C 283.493 190.147,283.243 190.082,282.633 190.082 C 282.022 190.082,281.772 190.147,282.078 190.227 M103.538 197.145 C 103.539 199.937,103.587 201.036,103.646 199.588 C 103.705 198.141,103.705 195.857,103.646 194.513 C 103.586 193.169,103.538 194.354,103.538 197.145 M327.835 199.524 C 328.516 200.222,329.145 200.793,329.233 200.793 C 329.320 200.793,328.834 200.222,328.152 199.524 C 327.471 198.826,326.842 198.255,326.755 198.255 C 326.667 198.255,327.154 198.826,327.835 199.524 " stroke="none" fill="#896504" fill-rule="evenodd"></path><path id="path4" d="M155.195 74.068 C 155.199 74.766,155.263 75.014,155.339 74.620 C 155.415 74.225,155.412 73.654,155.333 73.351 C 155.254 73.048,155.191 73.370,155.195 74.068 M132.672 88.098 C 133.327 88.166,134.397 88.166,135.052 88.098 C 135.706 88.029,135.170 87.973,133.862 87.973 C 132.554 87.973,132.018 88.029,132.672 88.098 M178.799 93.632 C 178.700 94.011,178.750 94.547,178.911 94.821 C 179.127 95.190,179.206 95.010,179.213 94.132 C 179.224 92.794,179.068 92.605,178.799 93.632 M178.986 99.128 C 178.989 99.826,179.054 100.074,179.130 99.679 C 179.206 99.285,179.203 98.714,179.124 98.410 C 179.044 98.107,178.982 98.430,178.986 99.128 M120.539 103.251 C 120.539 103.688,120.594 104.044,120.661 104.044 C 120.728 104.044,120.851 103.688,120.934 103.251 C 121.017 102.815,120.963 102.458,120.812 102.458 C 120.662 102.458,120.539 102.815,120.539 103.251 M187.255 109.754 C 187.255 110.888,187.312 111.352,187.383 110.785 C 187.453 110.218,187.453 109.290,187.383 108.723 C 187.312 108.156,187.255 108.620,187.255 109.754 M232.929 134.655 C 232.931 135.702,232.990 136.092,233.061 135.522 C 233.132 134.952,233.130 134.095,233.058 133.618 C 232.985 133.142,232.928 133.608,232.929 134.655 M75.632 139.492 C 74.992 140.147,74.332 140.643,74.165 140.595 C 73.999 140.547,73.953 140.654,74.063 140.833 C 74.335 141.273,74.241 141.332,75.813 139.730 C 76.583 138.945,77.120 138.303,77.004 138.303 C 76.889 138.303,76.272 138.838,75.632 139.492 M287.154 164.155 C 287.157 164.853,287.222 165.101,287.298 164.707 C 287.374 164.312,287.371 163.741,287.292 163.438 C 287.212 163.135,287.150 163.458,287.154 164.155 M223.558 186.749 C 224.129 186.819,224.985 186.818,225.462 186.745 C 225.938 186.673,225.472 186.615,224.425 186.617 C 223.378 186.619,222.988 186.678,223.558 186.749 M103.519 189.849 C 103.520 191.245,103.576 191.777,103.643 191.030 C 103.710 190.284,103.709 189.142,103.641 188.493 C 103.572 187.843,103.518 188.454,103.519 189.849 M62.807 229.183 C 63.399 229.794,63.955 230.293,64.042 230.293 C 64.129 230.293,63.716 229.794,63.125 229.183 C 62.533 228.573,61.977 228.073,61.890 228.073 C 61.803 228.073,62.215 228.573,62.807 229.183 " stroke="none" fill="#8c8c8c" fill-rule="evenodd"></path><path id="path5" d="M134.093 40.197 C 134.656 40.267,135.655 40.268,136.313 40.200 C 136.971 40.131,136.511 40.074,135.289 40.072 C 134.068 40.071,133.530 40.127,134.093 40.197 M114.607 52.657 C 114.607 53.616,114.667 54.009,114.739 53.529 C 114.812 53.049,114.812 52.264,114.739 51.784 C 114.667 51.305,114.607 51.697,114.607 52.657 M50.531 60.270 C 50.531 61.229,50.591 61.622,50.663 61.142 C 50.736 60.662,50.736 59.877,50.663 59.397 C 50.591 58.918,50.531 59.310,50.531 60.270 M125.372 61.548 C 124.802 62.066,124.454 62.490,124.599 62.490 C 124.743 62.490,125.272 62.062,125.773 61.538 C 126.939 60.322,126.714 60.327,125.372 61.548 M104.463 68.517 C 104.463 69.651,104.521 70.115,104.591 69.548 C 104.661 68.981,104.661 68.053,104.591 67.486 C 104.521 66.919,104.463 67.383,104.463 68.517 M64.948 75.725 C 65.515 75.795,66.443 75.795,67.010 75.725 C 67.577 75.655,67.113 75.597,65.979 75.597 C 64.845 75.597,64.381 75.655,64.948 75.725 M66.697 80.481 C 67.180 80.554,67.893 80.552,68.284 80.477 C 68.674 80.402,68.279 80.342,67.407 80.344 C 66.534 80.347,66.215 80.408,66.697 80.481 M72.086 80.481 C 72.565 80.554,73.351 80.554,73.830 80.481 C 74.310 80.408,73.918 80.349,72.958 80.349 C 71.998 80.349,71.606 80.408,72.086 80.481 M94.944 93.418 C 94.945 94.465,95.005 94.855,95.075 94.285 C 95.146 93.714,95.144 92.858,95.072 92.381 C 95.000 91.905,94.942 92.371,94.944 93.418 M61.618 104.272 C 62.098 104.344,62.883 104.344,63.362 104.272 C 63.842 104.199,63.450 104.139,62.490 104.139 C 61.531 104.139,61.138 104.199,61.618 104.272 M68.448 104.596 C 69.370 104.660,70.798 104.659,71.620 104.594 C 72.443 104.529,71.689 104.477,69.944 104.477 C 68.200 104.478,67.527 104.532,68.448 104.596 M76.209 109.656 C 76.515 109.735,77.014 109.735,77.320 109.656 C 77.625 109.576,77.375 109.511,76.764 109.511 C 76.154 109.511,75.904 109.576,76.209 109.656 M160.012 124.742 L 159.080 125.773 160.111 124.842 C 161.072 123.973,161.288 123.711,161.043 123.711 C 160.988 123.711,160.524 124.175,160.012 124.742 M157.791 126.963 L 156.860 127.994 157.891 127.062 C 158.458 126.550,158.921 126.086,158.921 126.031 C 158.921 125.786,158.660 126.002,157.791 126.963 M29.919 131.959 C 29.919 133.093,29.977 133.557,30.047 132.990 C 30.117 132.423,30.117 131.495,30.047 130.928 C 29.977 130.361,29.919 130.825,29.919 131.959 M32.038 133.386 C 32.038 133.822,32.161 134.179,32.311 134.179 C 32.462 134.179,32.516 133.822,32.433 133.386 C 32.350 132.950,32.227 132.593,32.160 132.593 C 32.093 132.593,32.038 132.950,32.038 133.386 M147.496 144.409 C 149.325 146.285,150.860 147.819,150.906 147.819 C 151.135 147.819,150.749 147.413,147.581 144.324 L 144.171 140.999 147.496 144.409 M79.693 150.357 C 79.693 150.967,79.758 151.217,79.838 150.912 C 79.918 150.607,79.918 150.107,79.838 149.802 C 79.758 149.496,79.693 149.746,79.693 150.357 M48.776 151.856 C 49.347 151.926,50.203 151.925,50.680 151.852 C 51.156 151.780,50.690 151.722,49.643 151.724 C 48.596 151.726,48.206 151.785,48.776 151.856 M139.372 183.029 C 139.372 184.861,139.424 185.611,139.488 184.695 C 139.552 183.779,139.552 182.280,139.488 181.364 C 139.424 180.448,139.372 181.197,139.372 183.029 M106.668 182.395 C 106.668 183.180,106.730 183.501,106.806 183.109 C 106.882 182.716,106.882 182.074,106.806 181.681 C 106.730 181.289,106.668 181.610,106.668 182.395 M106.360 188.422 C 106.360 189.381,106.419 189.774,106.492 189.294 C 106.565 188.814,106.565 188.029,106.492 187.550 C 106.419 187.070,106.360 187.462,106.360 188.422 M106.056 196.193 C 106.058 197.589,106.113 198.121,106.180 197.375 C 106.247 196.629,106.246 195.487,106.178 194.837 C 106.110 194.187,106.055 194.798,106.056 196.193 M93.989 199.207 C 93.989 200.167,94.048 200.559,94.121 200.079 C 94.194 199.600,94.194 198.814,94.121 198.335 C 94.048 197.855,93.989 198.247,93.989 199.207 M93.675 203.807 C 93.677 204.853,93.736 205.243,93.806 204.673 C 93.877 204.103,93.876 203.247,93.803 202.770 C 93.731 202.293,93.673 202.760,93.675 203.807 M208.345 207.692 C 210.492 207.746,213.918 207.746,215.958 207.691 C 217.998 207.636,216.241 207.591,212.054 207.591 C 207.867 207.591,206.198 207.637,208.345 207.692 M199.449 207.996 C 199.843 208.072,200.414 208.069,200.717 207.990 C 201.021 207.910,200.698 207.848,200.000 207.852 C 199.302 207.855,199.054 207.920,199.449 207.996 M223.870 207.995 C 224.262 208.071,224.905 208.071,225.297 207.995 C 225.690 207.920,225.369 207.858,224.584 207.858 C 223.799 207.858,223.477 207.920,223.870 207.995 M193.581 208.316 C 194.063 208.389,194.777 208.387,195.167 208.312 C 195.557 208.237,195.163 208.177,194.290 208.180 C 193.418 208.182,193.099 208.244,193.581 208.316 M322.758 221.808 L 312.292 232.355 322.839 221.889 C 332.641 212.162,333.529 211.261,333.305 211.261 C 333.260 211.261,328.514 216.007,322.758 221.808 M189.617 218.152 C 190.187 218.223,191.044 218.221,191.520 218.149 C 191.997 218.077,191.531 218.019,190.484 218.021 C 189.437 218.022,189.047 218.082,189.617 218.152 M36.717 219.425 C 37.633 219.489,39.132 219.489,40.048 219.425 C 40.964 219.361,40.214 219.308,38.382 219.308 C 36.550 219.308,35.801 219.361,36.717 219.425 M191.673 224.485 C 191.979 224.565,192.478 224.565,192.784 224.485 C 193.089 224.405,192.839 224.340,192.228 224.340 C 191.618 224.340,191.368 224.405,191.673 224.485 M176.137 231.245 C 176.137 232.030,176.199 232.351,176.275 231.959 C 176.350 231.566,176.350 230.924,176.275 230.531 C 176.199 230.139,176.137 230.460,176.137 231.245 M148.882 234.417 C 148.882 235.900,148.936 236.507,149.003 235.765 C 149.070 235.024,149.070 233.810,149.003 233.069 C 148.936 232.328,148.882 232.934,148.882 234.417 M218.035 234.576 C 218.034 236.146,218.088 236.828,218.154 236.092 C 218.221 235.356,218.221 234.071,218.156 233.237 C 218.090 232.403,218.036 233.006,218.035 234.576 M118.239 234.007 C 118.632 234.082,119.274 234.082,119.667 234.007 C 120.059 233.931,119.738 233.869,118.953 233.869 C 118.168 233.869,117.847 233.931,118.239 234.007 M178.906 238.957 C 178.906 239.012,179.370 239.476,179.937 239.988 L 180.967 240.920 180.036 239.889 C 179.167 238.928,178.906 238.712,178.906 238.957 M149.174 240.761 C 149.174 241.546,149.236 241.868,149.312 241.475 C 149.387 241.082,149.387 240.440,149.312 240.048 C 149.236 239.655,149.174 239.976,149.174 240.761 M294.460 241.872 C 294.463 242.744,294.524 243.063,294.597 242.581 C 294.670 242.099,294.668 241.385,294.593 240.995 C 294.518 240.605,294.458 240.999,294.460 241.872 M300.812 242.506 C 300.814 243.553,300.873 243.943,300.944 243.373 C 301.014 242.802,301.013 241.946,300.940 241.469 C 300.868 240.993,300.810 241.459,300.812 242.506 M270.659 242.823 C 270.662 243.521,270.727 243.769,270.803 243.375 C 270.879 242.980,270.876 242.409,270.797 242.106 C 270.717 241.802,270.655 242.125,270.659 242.823 M290.880 241.812 C 290.880 241.867,291.344 242.331,291.911 242.843 L 292.942 243.775 292.010 242.744 C 291.142 241.783,290.880 241.567,290.880 241.812 M206.287 243.933 C 206.287 245.067,206.345 245.531,206.415 244.964 C 206.485 244.397,206.485 243.469,206.415 242.902 C 206.345 242.335,206.287 242.799,206.287 243.933 M118.392 243.933 C 118.392 244.544,118.458 244.794,118.537 244.489 C 118.617 244.183,118.617 243.684,118.537 243.378 C 118.458 243.073,118.392 243.323,118.392 243.933 M149.485 245.678 C 149.489 246.376,149.554 246.624,149.630 246.229 C 149.705 245.835,149.703 245.264,149.623 244.961 C 149.544 244.657,149.482 244.980,149.485 245.678 M301.105 247.740 C 301.105 248.351,301.170 248.600,301.250 248.295 C 301.329 247.990,301.329 247.490,301.250 247.185 C 301.170 246.879,301.105 247.129,301.105 247.740 M270.994 249.167 C 270.996 250.214,271.055 250.604,271.126 250.034 C 271.197 249.464,271.195 248.607,271.123 248.131 C 271.050 247.654,270.993 248.121,270.994 249.167 M118.716 250.119 C 118.720 250.817,118.784 251.065,118.860 250.670 C 118.936 250.276,118.933 249.705,118.854 249.402 C 118.775 249.098,118.712 249.421,118.716 250.119 M149.796 250.595 C 149.796 251.205,149.861 251.455,149.941 251.150 C 150.021 250.845,150.021 250.345,149.941 250.040 C 149.861 249.734,149.796 249.984,149.796 250.595 M188.188 250.822 C 188.671 250.895,189.384 250.893,189.774 250.818 C 190.165 250.743,189.770 250.683,188.898 250.685 C 188.025 250.688,187.706 250.749,188.188 250.822 M301.422 251.864 C 301.422 252.474,301.487 252.724,301.567 252.419 C 301.647 252.113,301.647 251.614,301.567 251.308 C 301.487 251.003,301.422 251.253,301.422 251.864 M138.711 254.243 C 138.713 255.115,138.775 255.434,138.848 254.952 C 138.921 254.470,138.919 253.756,138.843 253.366 C 138.768 252.976,138.708 253.370,138.711 254.243 M19.263 253.996 C 19.826 254.066,20.826 254.067,21.484 253.998 C 22.142 253.930,21.681 253.872,20.460 253.871 C 19.239 253.870,18.700 253.926,19.263 253.996 M82.554 253.986 C 82.859 254.065,83.358 254.065,83.664 253.986 C 83.969 253.906,83.719 253.840,83.109 253.840 C 82.498 253.840,82.248 253.906,82.554 253.986 M119.027 254.718 C 119.027 255.329,119.092 255.579,119.172 255.274 C 119.252 254.968,119.252 254.469,119.172 254.163 C 119.092 253.858,119.027 254.108,119.027 254.718 M107.614 255.194 C 107.617 255.892,107.682 256.140,107.758 255.746 C 107.834 255.351,107.831 254.780,107.752 254.477 C 107.672 254.174,107.610 254.496,107.614 255.194 M301.739 255.987 C 301.739 256.598,301.804 256.848,301.884 256.542 C 301.964 256.237,301.964 255.738,301.884 255.432 C 301.804 255.127,301.739 255.377,301.739 255.987 M237.034 256.218 C 237.688 256.287,238.759 256.287,239.413 256.218 C 240.067 256.150,239.532 256.094,238.224 256.094 C 236.915 256.094,236.380 256.150,237.034 256.218 M187.717 257.172 C 188.463 257.239,189.605 257.238,190.254 257.170 C 190.904 257.101,190.293 257.047,188.898 257.048 C 187.502 257.049,186.970 257.105,187.717 257.172 M107.946 260.745 C 107.946 261.705,108.005 262.098,108.078 261.618 C 108.151 261.138,108.151 260.353,108.078 259.873 C 108.005 259.393,107.946 259.786,107.946 260.745 M302.087 261.221 C 302.088 262.443,302.145 262.903,302.214 262.245 C 302.283 261.587,302.282 260.588,302.211 260.025 C 302.141 259.462,302.085 260.000,302.087 261.221 M156.463 261.599 C 156.768 261.678,157.268 261.678,157.573 261.599 C 157.879 261.519,157.629 261.453,157.018 261.453 C 156.408 261.453,156.158 261.519,156.463 261.599 M201.828 263.194 C 202.310 263.266,203.024 263.264,203.414 263.189 C 203.805 263.114,203.410 263.054,202.538 263.057 C 201.665 263.059,201.346 263.121,201.828 263.194 M21.332 267.951 C 21.812 268.024,22.597 268.024,23.077 267.951 C 23.557 267.879,23.164 267.819,22.205 267.819 C 21.245 267.819,20.852 267.879,21.332 267.951 M197.377 270.896 C 197.377 271.507,197.443 271.757,197.522 271.451 C 197.602 271.146,197.602 270.646,197.522 270.341 C 197.443 270.036,197.377 270.285,197.377 270.896 M22.638 292.942 C 22.638 294.687,22.692 295.360,22.756 294.438 C 22.820 293.516,22.820 292.089,22.755 291.266 C 22.689 290.443,22.637 291.197,22.638 292.942 M169.950 291.745 C 170.520 291.815,171.377 291.814,171.853 291.741 C 172.330 291.669,171.864 291.611,170.817 291.613 C 169.770 291.615,169.380 291.674,169.950 291.745 " stroke="none" fill="#747474" fill-rule="evenodd"></path><path id="path6" d="M136.538 59.397 L 135.607 60.428 136.638 59.497 C 137.599 58.628,137.814 58.366,137.569 58.366 C 137.515 58.366,137.051 58.830,136.538 59.397 M168.227 71.055 C 168.227 72.363,168.283 72.898,168.352 72.244 C 168.420 71.590,168.420 70.519,168.352 69.865 C 168.283 69.211,168.227 69.746,168.227 71.055 M64.318 80.478 C 64.712 80.554,65.283 80.551,65.587 80.472 C 65.890 80.392,65.567 80.330,64.869 80.334 C 64.171 80.337,63.923 80.402,64.318 80.478 M69.389 80.478 C 69.782 80.553,70.424 80.553,70.817 80.478 C 71.209 80.402,70.888 80.340,70.103 80.340 C 69.318 80.340,68.997 80.402,69.389 80.478 M87.312 91.515 C 87.316 92.213,87.381 92.461,87.457 92.066 C 87.533 91.672,87.530 91.101,87.450 90.797 C 87.371 90.494,87.309 90.817,87.312 91.515 M70.334 109.983 C 70.897 110.053,71.896 110.054,72.554 109.986 C 73.213 109.917,72.752 109.860,71.531 109.858 C 70.309 109.857,69.771 109.913,70.334 109.983 M79.413 144.964 C 79.413 146.447,79.468 147.054,79.534 146.312 C 79.601 145.571,79.601 144.358,79.534 143.616 C 79.468 142.875,79.413 143.481,79.413 144.964 M142.744 148.612 C 143.336 149.223,143.891 149.722,143.979 149.722 C 144.066 149.722,143.653 149.223,143.061 148.612 C 142.469 148.002,141.914 147.502,141.826 147.502 C 141.739 147.502,142.152 148.002,142.744 148.612 M156.860 162.094 C 157.541 162.791,158.170 163.362,158.257 163.362 C 158.344 163.362,157.858 162.791,157.177 162.094 C 156.495 161.396,155.866 160.825,155.779 160.825 C 155.692 160.825,156.178 161.396,156.860 162.094 M107.990 166.614 L 107.058 167.645 108.089 166.713 C 109.050 165.845,109.266 165.583,109.020 165.583 C 108.966 165.583,108.502 166.047,107.990 166.614 M125.071 197.780 C 125.073 198.652,125.135 198.971,125.208 198.489 C 125.281 198.007,125.279 197.293,125.203 196.903 C 125.128 196.513,125.069 196.907,125.071 197.780 M106.049 200.476 C 106.049 201.610,106.107 202.074,106.177 201.507 C 106.247 200.940,106.247 200.012,106.177 199.445 C 106.107 198.878,106.049 199.342,106.049 200.476 M232.276 217.515 C 232.756 217.588,233.541 217.588,234.021 217.515 C 234.500 217.442,234.108 217.383,233.148 217.383 C 232.189 217.383,231.796 217.442,232.276 217.515 M229.739 229.818 C 229.743 230.515,229.807 230.764,229.883 230.369 C 229.959 229.974,229.956 229.403,229.877 229.100 C 229.798 228.797,229.735 229.120,229.739 229.818 M138.715 257.256 C 138.715 258.216,138.775 258.608,138.847 258.128 C 138.920 257.649,138.920 256.864,138.847 256.384 C 138.775 255.904,138.715 256.297,138.715 257.256 M107.965 265.186 C 107.965 266.844,108.019 267.522,108.084 266.693 C 108.149 265.864,108.149 264.508,108.084 263.680 C 108.019 262.851,107.965 263.529,107.965 265.186 " stroke="none" fill="#bcbcbc" fill-rule="evenodd"></path><path id="path7" d="M56.780 68.299 C 56.780 68.354,57.244 68.818,57.811 69.330 L 58.842 70.262 57.911 69.231 C 57.042 68.270,56.780 68.054,56.780 68.299 M38.048 112.530 L 36.955 113.719 38.144 112.626 C 38.799 112.025,39.334 111.490,39.334 111.437 C 39.334 111.194,39.065 111.423,38.048 112.530 M246.154 222.462 C 246.154 222.517,246.618 222.981,247.185 223.493 L 248.216 224.425 247.284 223.394 C 246.416 222.433,246.154 222.217,246.154 222.462 M35.514 230.056 C 36.829 231.456,37.113 231.708,37.113 231.470 C 37.113 231.419,36.435 230.741,35.607 229.963 L 34.100 228.549 35.514 230.056 " stroke="none" fill="#cccccc" fill-rule="evenodd"></path></g></svg>